<svg width="24" height="24" viewBox="0 0 24 24" fill="none" xmlns="http://www.w3.org/2000/svg">
<circle cx="12" cy="12" r="12" fill="#ED5565"/>
<path d="M15.9456 13.5465C15.7729 13.7138 15.6936 13.9558 15.7329 14.1932L16.3256 17.4732C16.3756 17.7512 16.2583 18.0325 16.0256 18.1932C15.7976 18.3598 15.4943 18.3798 15.2456 18.2465L12.2929 16.7065C12.1903 16.6518 12.0763 16.6225 11.9596 16.6192H11.7789C11.7163 16.6285 11.6549 16.6485 11.5989 16.6792L8.64559 18.2265C8.49959 18.2998 8.33426 18.3258 8.17226 18.2998C7.77759 18.2252 7.51426 17.8492 7.57893 17.4525L8.17226 14.1725C8.21159 13.9332 8.13226 13.6898 7.95959 13.5198L5.55226 11.1865C5.35093 10.9912 5.28093 10.6978 5.37293 10.4332C5.46226 10.1692 5.69026 9.9765 5.96559 9.93317L9.27892 9.4525C9.53093 9.4265 9.75226 9.27317 9.86559 9.0465L11.3256 6.05317C11.3603 5.9865 11.4049 5.92517 11.4589 5.87317L11.5189 5.8265C11.5503 5.79184 11.5863 5.76317 11.6263 5.73984L11.6989 5.71317L11.8123 5.6665H12.0929C12.3436 5.6925 12.5643 5.8425 12.6796 6.0665L14.1589 9.0465C14.2656 9.2645 14.4729 9.41584 14.7123 9.4525L18.0256 9.93317C18.3056 9.97317 18.5396 10.1665 18.6323 10.4332C18.7196 10.7005 18.6443 10.9938 18.4389 11.1865L15.9456 13.5465Z" fill="white"/>
</svg>
